<?xml version="1.0" standalone="no"?>
<!DOCTYPE svg PUBLIC "-//W3C//DTD SVG 20010904//EN"
 "http://www.w3.org/TR/2001/REC-SVG-20010904/DTD/svg10.dtd">
<svg version="1.0" xmlns="http://www.w3.org/2000/svg"
 width="260.000000pt" height="260.000000pt" viewBox="0 0 260.000000 260.000000"
 preserveAspectRatio="xMidYMid meet">
<metadata>
Created by potrace 1.14, written by Peter Selinger 2001-2017
</metadata>
<g transform="translate(0.000000,260.000000) scale(0.100000,-0.100000)"
fill="#000000" stroke="none">
<path d="M420 2400 c-41 -41 -31 -56 184 -272 124 -123 207 -215 211 -231 5
-20 1 -32 -19 -51 -14 -15 -35 -26 -48 -26 -15 0 -84 62 -233 210 -220 220
-235 230 -275 190 -40 -40 -30 -55 184 -270 129 -128 207 -215 211 -232 10
-39 -34 -83 -73 -73 -17 4 -104 82 -232 211 -215 214 -230 224 -270 184 -26
-26 -25 -48 2 -87 22 -29 236 -292 248 -303 3 -3 32 -39 65 -80 81 -102 140
-157 200 -188 42 -22 63 -27 130 -27 68 0 88 4 133 28 l54 27 31 -32 c18 -18
58 -62 89 -98 l58 -64 27 25 c39 36 104 94 133 119 l24 21 -59 52 c-33 29 -79
71 -102 93 l-43 41 31 67 c28 60 31 75 27 135 -6 80 -38 146 -102 212 -40 41
-262 228 -327 275 -17 12 -44 35 -62 51 -69 62 -140 113 -158 113 -10 0 -28
-9 -39 -20z"/>
<path d="M2069 2368 c-215 -54 -425 -245 -497 -451 -29 -86 -36 -199 -16 -272
7 -27 16 -60 20 -72 7 -26 4 -29 -187 -198 -115 -102 -169 -150 -225 -200 -18
-17 -98 -88 -174 -155 -77 -68 -156 -138 -174 -155 -52 -46 -104 -93 -151
-134 -134 -118 -201 -179 -236 -215 -72 -74 -69 -160 9 -247 87 -97 183 -110
264 -35 18 17 67 69 108 116 41 47 77 87 80 90 3 3 39 43 80 90 41 47 77 87
80 90 3 3 39 43 80 90 86 99 129 147 150 170 8 8 47 51 85 95 39 44 84 95 102
115 17 19 40 44 50 56 20 23 127 143 184 207 l37 41 63 -20 c231 -70 502 52
662 300 149 230 149 467 0 612 -94 92 -238 122 -394 82z"/>
<path d="M1561 1052 c-13 -15 -58 -64 -98 -110 -82 -92 -81 -82 -23 -143 8 -9
28 -31 44 -50 28 -32 143 -161 213 -239 17 -19 41 -46 52 -59 199 -230 240
-266 306 -265 93 1 202 101 218 201 10 61 -22 108 -142 213 -35 30 -76 66 -91
80 -31 28 -164 147 -190 170 -63 55 -171 152 -209 187 -25 23 -48 42 -51 43
-3 0 -16 -13 -29 -28z"/>
</g>
</svg>
