<svg width="122" height="22" viewBox="0 0 122 22" fill="none" xmlns="http://www.w3.org/2000/svg"><path d="M54.01 14.701V10.11c0-1.73-1.092-2.893-2.85-2.908-.502-.033-1.002.07-1.45.3a2.816 2.816 0 0 0-1.097 1 2.673 2.673 0 0 0-1.02-.982 2.64 2.64 0 0 0-1.376-.318 2.377 2.377 0 0 0-1.204.259c-.372.19-.688.476-.918.828v-.903H42.52V14.7h1.591v-4.056c0-1.27.698-1.943 1.774-1.943 1.046 0 1.577.689 1.577 1.928v4.071h1.591v-4.056c0-1.27.728-1.943 1.774-1.943 1.076 0 1.592.689 1.592 1.928v4.071h1.591Zm23.557-7.315H74.99v-2.22h-1.592v2.22h-1.47V8.84h1.47v3.336c0 1.699.652 2.709 2.517 2.709a3.678 3.678 0 0 0 1.97-.566l-.454-1.363a2.891 2.891 0 0 1-1.395.414c-.788 0-1.046-.49-1.046-1.225V8.84h2.577V7.386Zm13.447-.184a2.121 2.121 0 0 0-1.101.27 2.146 2.146 0 0 0-.81.801v-.887h-1.561V14.7h1.576V10.6c0-1.21.516-1.883 1.547-1.883.337-.005.672.058.985.184l.485-1.5a3.34 3.34 0 0 0-1.122-.199Zm-20.33.765a5.378 5.378 0 0 0-2.955-.765c-1.835 0-3.017.888-3.017 2.341 0 1.194.88 1.929 2.501 2.159l.743.107c.864.122 1.273.352 1.273.765 0 .566-.576.887-1.652.887a3.835 3.835 0 0 1-2.41-.765l-.743 1.24c.918.647 2.018.98 3.138.949 2.092 0 3.305-.995 3.305-2.388 0-1.285-.955-1.959-2.532-2.188l-.743-.107c-.682-.092-1.228-.23-1.228-.72 0-.535.516-.857 1.38-.857.793.012 1.57.228 2.258.628l.683-1.286Zm42.235-.765a2.12 2.12 0 0 0-1.101.27 2.144 2.144 0 0 0-.809.801v-.887h-1.562V14.7h1.577V10.6c0-1.21.515-1.883 1.546-1.883.337-.005.672.058.986.184l.485-1.5c-.36-.13-.74-.197-1.122-.199Zm-20.314 3.841c0 2.22 1.531 3.842 3.866 3.842a3.772 3.772 0 0 0 2.607-.873l-.758-1.285c-.545.42-1.21.65-1.895.658-1.258-.015-2.182-.934-2.182-2.342s.924-2.326 2.182-2.341c.686.008 1.35.238 1.895.658l.758-1.286c-.73-.609-1.66-.92-2.607-.872-2.335 0-3.866 1.622-3.866 3.841Zm14.765 0V7.386h-1.576v.887a2.748 2.748 0 0 0-2.289-1.071c-2.032 0-3.623 1.607-3.623 3.841 0 2.235 1.591 3.842 3.623 3.842a2.748 2.748 0 0 0 2.289-1.071v.887h1.576v-3.658Zm-5.866 0c0-1.285.834-2.341 2.198-2.341 1.304 0 2.183 1.01 2.183 2.341 0 1.332-.879 2.342-2.183 2.342-1.364 0-2.198-1.056-2.198-2.342ZM82.479 7.202c-2.123 0-3.608 1.561-3.608 3.841 0 2.327 1.546 3.842 3.714 3.842a4.378 4.378 0 0 0 2.971-1.026l-.773-1.178a3.432 3.432 0 0 1-2.107.765c-1.016 0-1.94-.474-2.168-1.79h5.382c.015-.2.03-.398.03-.613-.015-2.28-1.41-3.841-3.441-3.841Zm-.03 1.423c1.015 0 1.667.643 1.834 1.776h-3.76c.167-1.056.804-1.776 1.925-1.776Zm39.55 2.418V4.447h-1.576v3.826a2.756 2.756 0 0 0-1.016-.816 2.726 2.726 0 0 0-1.273-.255c-2.032 0-3.623 1.607-3.623 3.841 0 2.235 1.591 3.842 3.623 3.842.438.019.875-.069 1.273-.255a2.756 2.756 0 0 0 1.016-.817v.888h1.576v-3.658Zm-5.866 0c0-1.285.833-2.341 2.198-2.341 1.303 0 2.183 1.01 2.183 2.341 0 1.332-.88 2.342-2.183 2.342-1.365 0-2.198-1.056-2.198-2.342Zm-53.24 0V7.386h-1.577v.887a2.727 2.727 0 0 0-2.29-1.071c-2.03 0-3.622 1.607-3.622 3.841 0 2.235 1.592 3.842 3.623 3.842.439.019.875-.069 1.274-.255a2.753 2.753 0 0 0 1.015-.817v.888h1.577v-3.658Zm-5.867 0c0-1.285.834-2.341 2.198-2.341 1.304 0 2.183 1.01 2.183 2.341 0 1.332-.88 2.342-2.183 2.342-1.364 0-2.198-1.056-2.198-2.342Z" fill="#acbccc"/><path d="M22.388 2.353h-9.534v17.296h9.534V2.353Z" fill="#FF5F00"/><path d="M13.468 11a11.068 11.068 0 0 1 1.093-4.808 10.962 10.962 0 0 1 3.068-3.84A10.806 10.806 0 0 0 6.134 1.106 10.932 10.932 0 0 0 1.66 5.164 11.078 11.078 0 0 0 0 11c0 2.064.575 4.086 1.66 5.836a10.932 10.932 0 0 0 4.474 4.058 10.806 10.806 0 0 0 11.495-1.246 10.962 10.962 0 0 1-3.068-3.84A11.068 11.068 0 0 1 13.468 11Z" fill="#EB001B"/><path d="M35.251 11c0 2.064-.575 4.086-1.66 5.836a10.931 10.931 0 0 1-4.473 4.058 10.806 10.806 0 0 1-11.495-1.246 10.984 10.984 0 0 0 3.066-3.84 11.09 11.09 0 0 0 0-9.615 10.983 10.983 0 0 0-3.066-3.841 10.805 10.805 0 0 1 11.495-1.246 10.931 10.931 0 0 1 4.474 4.058A11.077 11.077 0 0 1 35.252 11Z" fill="#F79E1B"/></svg>
