<svg width="57" height="22" viewBox="0 0 57 22" fill="none" xmlns="http://www.w3.org/2000/svg"><path fill-rule="evenodd" clip-rule="evenodd" d="M50.433 3H40.08c.557 3.543 3.897 6.857 7.571 6.857h8.239c.111-.343.111-.8.111-1.143C56 5.514 53.55 3 50.433 3Z" fill="#00B4E6"/><path fill-rule="evenodd" clip-rule="evenodd" d="M40.967 10.429V19h5.01v-4.571h4.454c2.45 0 4.565-1.714 5.233-4H40.967ZM23.156 3v16h4.453s1.114 0 1.67-1.143l3.897-8h.557v9.142h5.01V3h-4.454s-1.113.114-1.67 1.143l-3.896 8h-.557V3h-5.01ZM2 19V3h5.01s1.448 0 2.227 2.286c2.004 6.056 2.227 6.857 2.227 6.857s.445-1.486 2.226-6.857C14.47 3 15.917 3 15.917 3h5.01v16h-5.01v-8.572h-.557L12.577 19H10.35l-2.783-8.57H7.01v8.57H2Z" fill="#4DB45F"/></svg>