<svg width="54" height="22" viewBox="0 0 54 22" fill="none" xmlns="http://www.w3.org/2000/svg"><path fill-rule="evenodd" clip-rule="evenodd" d="m47.265 18.757-.49-2.312h-5.183l-.843 2.312h-4.242l6.063-14.34a1.839 1.839 0 0 1 1.72-1.135h3.447L51 18.757h-3.735ZM44.882 7.463l-2.127 5.812h3.349l-1.221-5.812Zm-12.11-1.189c-1.168.151-1.702.742-1.715 1.296-.037 1.825 5.677 2.051 5.66 6.134-.012 3.218-2.79 5.296-7.035 5.296-1.805-.02-3.547-.392-4.492-.821l.733-3.392c.94.433 2.118 1.01 4.15.977 1.159-.017 2.405-.477 2.417-1.515.007-.677-.521-1.164-2.096-1.922-1.529-.742-3.562-1.985-3.536-4.212C26.88 5.102 29.69 3 33.684 3c1.556 0 2.807.335 3.78.684l-.708 3.283c-1.81-.826-3.407-.767-3.985-.693ZM18.376 18.757l3.34-15.475h4.04l-3.34 15.475h-4.04Zm-9.21 0L5.945 6.407c-.195-.76-.365-1.038-.96-1.36C4.016 4.526 2.41 4.037 1 3.733l.095-.45h6.876c.875 0 1.663.578 1.863 1.577l1.702 8.956L15.74 3.282h4.245l-6.546 15.475H9.167Z" fill="#acbccc"/></svg>
