<svg width="55" height="22" viewBox="0 0 55 22" fill="none" xmlns="http://www.w3.org/2000/svg"><circle cx="11" cy="11" r="10" fill="#fff"/><path fill-rule="evenodd" clip-rule="evenodd" d="M40.039 6.626c.592 1.988 1.03 4.013 1.568 6.01l-3.028-.032c.493-1.992 1.035-3.972 1.46-5.978Zm-10.411-.693c1.122.064 2.658-.205 3.292.994.52 1.053.456 2.572-.492 3.37-.79.63-1.86.456-2.796.524V5.933h-.004Zm14.738-1.76c1.181 2.558 2.659 4.984 3.721 7.597.128 1.824 0 3.703.073 5.559h2.28c.055-1.875-.059-3.753.05-5.628 1.058-2.58 2.522-4.984 3.649-7.537l-2.025-.06c-.971 1.783-1.783 3.648-2.704 5.472-.885-1.824-1.733-3.648-2.663-5.444l-2.39.05.01-.01Zm-5.559 0c-1.085 4.405-2.303 8.778-3.397 13.183a41.86 41.86 0 0 0 2.03-.119c.19-.911.4-1.792.647-2.676a51.71 51.71 0 0 1 3.944-.046c.238.944.488 1.883.735 2.823h2.348c-1.14-4.405-2.23-8.82-3.443-13.202-.953 0-1.91 0-2.864.028v.009Zm-11.478 0c.06 4.405-.1 8.814.078 13.224.73 0 1.464-.027 2.193-.036.032-1.574-.032-3.147.082-4.711 1.92.105 4.305-.155 5.34-2.03.862-1.787.725-4.368-1.026-5.585-1.956-1.369-4.45-.735-6.667-.853v-.01Z" fill="#acbccc"/><path fill-rule="evenodd" clip-rule="evenodd" d="M8.34 5.065c1.907-1.017 4.146-.534 6.207-.634.023 4.4.032 8.797 0 13.197h-2.116c-.022-3.812 0-7.62 0-11.428-1.555-.173-3.958.21-3.89 2.24-.314 2.056 1.665 3.224 3.101 4.227-1.016 1.673-2.083 3.315-3.141 4.961H6.038c.912-1.518 1.929-2.96 2.896-4.437-.935-.812-2.03-1.61-2.372-2.864-.71-1.86-.045-4.3 1.793-5.244l-.014-.018ZM8.077.377C3.297 1.54-.29 6.305.02 11.221-.155 16.64 4.437 21.628 9.84 21.956a10.753 10.753 0 0 0 9.764-4.515 11.436 11.436 0 0 0 .98-11.127C18.578 1.622 12.983-.996 8.09.354l-.014.023Z" fill="#FF4833"/></svg>
